<svg id="svg" version="1.1" xmlns="http://www.w3.org/2000/svg" xmlns:xlink="http://www.w3.org/1999/xlink" width="400" height="200" viewBox="0, 0, 400,200"><g id="svgg"><path id="path0" d="M7.450 71.950 C 3.378 71.998,2.600 72.054,2.600 72.296 C 2.600 72.615,2.976 73.317,4.938 76.657 C 5.663 77.890,6.659 79.618,7.151 80.495 C 7.644 81.372,8.261 82.406,8.523 82.791 C 8.786 83.177,9.000 83.553,9.000 83.626 C 9.000 83.699,9.358 84.348,9.795 85.067 C 10.232 85.786,10.984 87.078,11.467 87.937 C 11.950 88.797,12.840 90.355,13.446 91.400 C 16.529 96.722,18.400 100.053,18.400 100.218 C 18.400 100.374,17.232 102.472,15.980 104.565 C 15.804 104.859,14.757 106.675,13.654 108.600 C 12.551 110.525,10.520 114.035,9.141 116.400 C 2.848 127.194,2.177 128.431,2.443 128.752 C 2.665 129.019,3.782 129.038,11.752 128.909 C 21.652 128.749,21.737 128.741,22.261 127.888 C 22.460 127.564,23.389 125.995,24.327 124.400 C 25.264 122.805,26.429 120.845,26.916 120.045 C 27.402 119.244,27.800 118.505,27.800 118.402 C 27.800 118.298,28.058 117.918,28.372 117.557 C 28.687 117.196,29.103 116.585,29.297 116.200 C 29.779 115.241,33.643 108.587,34.605 107.057 C 38.206 101.333,38.386 99.787,35.905 95.910 C 35.549 95.355,34.812 94.090,34.266 93.100 C 33.114 91.008,28.015 82.182,25.198 77.400 C 24.128 75.585,23.064 73.727,22.833 73.271 C 21.989 71.604,23.773 71.757,7.450 71.950 M78.643 76.097 C 58.112 80.026,52.446 106.175,69.536 118.127 C 81.264 126.328,98.454 122.075,103.187 109.800 C 104.606 106.120,105.367 98.466,104.426 97.331 C 104.071 96.903,83.865 96.815,83.440 97.240 C 83.082 97.598,83.107 103.074,83.467 103.373 C 83.649 103.524,85.997 103.612,90.817 103.647 L 97.900 103.700 97.963 104.359 C 98.287 107.728,94.064 113.119,89.777 114.809 C 76.256 120.139,62.538 107.338,67.128 93.675 C 70.989 82.177,83.736 78.478,93.858 85.918 L 94.617 86.476 96.708 84.392 C 99.098 82.010,99.031 82.165,98.077 81.265 C 93.595 77.038,85.279 74.827,78.643 76.097 M169.400 76.268 C 155.756 79.302,147.649 93.245,151.991 106.205 C 159.186 127.681,190.842 127.750,195.735 106.300 C 196.226 104.149,196.273 97.495,195.800 97.196 C 195.621 97.083,191.364 97.005,185.245 97.003 L 174.990 97.000 174.777 97.550 C 174.540 98.161,174.615 102.943,174.868 103.350 C 174.988 103.542,176.653 103.600,182.087 103.600 C 190.346 103.600,189.855 103.467,189.298 105.555 C 185.324 120.452,162.522 119.085,158.358 103.700 C 154.140 88.118,172.300 75.513,184.667 85.438 C 186.169 86.643,185.834 86.743,188.189 84.392 C 190.492 82.091,190.485 82.113,189.350 81.068 C 184.669 76.756,176.279 74.738,169.400 76.268 M110.292 77.050 C 110.240 77.188,110.220 87.155,110.248 99.200 L 110.300 121.100 117.700 121.159 C 125.793 121.223,128.082 121.070,130.892 120.275 C 140.738 117.491,146.262 109.922,146.271 99.200 C 146.281 86.704,138.881 78.280,126.774 77.004 C 123.882 76.700,110.411 76.737,110.292 77.050 M230.975 80.207 C 230.458 80.328,229.498 82.633,226.190 91.700 C 225.990 92.250,225.274 94.140,224.599 95.900 C 223.925 97.660,223.166 99.685,222.912 100.400 C 222.659 101.115,221.675 103.748,220.726 106.250 C 219.776 108.753,218.243 112.803,217.319 115.250 C 216.394 117.697,215.543 119.944,215.426 120.243 C 215.048 121.217,215.486 121.400,218.198 121.400 C 221.247 121.400,221.031 121.545,222.015 118.835 C 222.481 117.551,223.298 115.323,223.831 113.884 C 224.364 112.444,224.800 111.168,224.800 111.048 C 224.800 110.226,225.068 110.200,233.583 110.200 C 241.099 110.200,241.763 110.227,242.055 110.550 C 242.457 110.995,242.552 111.245,245.610 119.900 C 246.071 121.205,246.324 121.310,249.148 121.372 C 252.341 121.442,252.292 121.518,251.092 118.362 C 250.577 117.008,249.768 114.865,249.293 113.600 C 248.819 112.335,248.148 110.580,247.802 109.700 C 247.456 108.820,247.098 107.875,247.007 107.600 C 246.683 106.623,244.814 101.607,244.422 100.661 C 244.203 100.132,242.477 95.560,240.586 90.500 C 236.911 80.667,236.722 80.206,236.345 80.188 C 234.742 80.112,231.328 80.124,230.975 80.207 M334.478 80.350 C 334.031 80.798,334.066 120.637,334.514 121.086 C 334.886 121.457,338.563 121.541,339.213 121.193 C 339.658 120.955,339.841 80.572,339.398 80.299 C 338.949 80.021,334.764 80.065,334.478 80.350 M127.442 83.798 C 135.152 84.966,139.312 90.026,139.549 98.519 C 139.770 106.460,136.610 111.466,130.006 113.636 C 127.985 114.300,118.088 114.865,117.150 114.371 C 116.668 114.116,116.600 84.228,117.080 83.748 C 117.414 83.415,125.160 83.452,127.442 83.798 M288.600 88.413 C 288.600 93.192,288.692 93.000,286.406 93.000 C 285.427 93.000,284.392 93.089,284.106 93.198 L 283.587 93.395 283.643 95.648 L 283.700 97.900 285.958 98.000 C 287.667 98.076,288.262 98.173,288.405 98.400 C 288.516 98.576,288.595 102.229,288.597 107.242 C 288.600 116.949,288.610 117.013,290.282 119.069 C 291.771 120.900,293.256 121.487,296.578 121.558 C 301.338 121.660,301.736 121.322,300.535 118.200 L 299.881 116.500 298.332 116.564 C 294.185 116.735,293.708 115.472,293.830 104.650 C 293.913 97.252,293.503 98.007,297.438 98.003 C 300.867 97.999,300.549 98.245,300.628 95.537 C 300.706 92.861,300.872 92.983,297.255 93.043 C 293.617 93.103,293.900 93.458,293.899 88.839 C 293.897 84.236,294.139 84.600,291.088 84.600 L 288.600 84.600 288.600 88.413 M234.223 88.506 C 234.443 89.004,235.014 90.511,235.491 91.856 C 236.770 95.463,238.264 99.607,239.184 102.100 C 239.630 103.310,239.996 104.458,239.998 104.650 C 240.000 104.976,239.567 105.000,233.694 105.000 C 226.836 105.000,226.968 105.023,227.411 103.884 C 227.536 103.563,227.979 102.355,228.395 101.200 C 228.811 100.045,229.917 96.985,230.853 94.400 C 231.789 91.815,232.674 89.340,232.819 88.900 C 233.341 87.320,233.659 87.231,234.223 88.506 M267.611 92.418 C 266.153 92.704,263.983 93.873,262.653 95.088 C 261.181 96.434,261.000 96.391,261.000 94.695 C 261.000 93.633,260.934 93.379,260.613 93.207 C 260.129 92.948,256.606 92.939,256.200 93.196 C 255.938 93.361,255.900 95.138,255.900 107.200 C 255.900 119.261,255.938 121.039,256.200 121.206 C 256.570 121.442,260.368 121.407,260.850 121.163 C 261.175 120.999,261.200 120.396,261.202 112.843 C 261.205 103.263,261.349 102.392,263.361 99.741 C 266.109 96.122,272.673 96.456,274.495 100.307 C 275.329 102.071,275.400 103.006,275.400 112.220 C 275.400 122.438,275.089 121.400,278.149 121.400 C 281.133 121.400,280.839 122.621,280.753 110.593 C 280.672 99.305,280.699 99.574,279.391 96.982 C 277.599 93.431,272.507 91.458,267.611 92.418 M312.300 92.486 C 309.647 93.033,307.179 94.387,305.594 96.165 C 304.138 97.798,304.159 97.831,308.024 100.163 C 308.986 100.744,308.929 100.762,310.300 99.470 C 314.885 95.151,322.450 97.149,323.121 102.856 C 323.285 104.253,323.069 104.342,321.158 103.665 C 319.167 102.959,314.156 102.765,311.690 103.299 C 304.367 104.884,301.371 111.236,304.920 117.656 C 307.812 122.888,317.386 123.718,321.767 119.118 C 323.038 117.784,323.200 117.827,323.200 119.498 C 323.200 121.279,323.361 121.400,325.727 121.400 C 328.708 121.400,328.400 122.559,328.398 111.343 C 328.395 100.692,328.394 100.681,327.106 98.074 C 324.884 93.574,318.575 91.194,312.300 92.486 M380.677 92.386 C 377.984 92.817,375.624 93.989,373.751 95.824 C 372.167 97.377,372.073 97.789,373.150 98.466 C 373.563 98.725,374.491 99.311,375.214 99.769 C 376.860 100.810,376.757 100.820,378.141 99.467 C 382.637 95.071,390.244 97.147,390.932 102.958 C 391.087 104.267,390.913 104.334,389.050 103.681 C 386.821 102.900,381.755 102.744,379.227 103.378 C 373.519 104.810,370.649 108.708,371.401 114.006 C 372.509 121.822,383.751 125.067,389.484 119.226 C 390.882 117.801,391.000 117.823,391.000 119.500 C 391.000 121.210,391.266 121.400,393.658 121.400 C 396.487 121.400,396.200 122.535,396.200 111.335 C 396.200 103.363,396.147 101.477,395.896 100.492 C 394.378 94.528,388.117 91.194,380.677 92.386 M343.333 93.133 C 342.986 93.481,343.244 94.162,346.550 101.600 C 347.210 103.085,348.312 105.605,348.999 107.200 C 349.686 108.795,350.413 110.460,350.615 110.900 C 352.167 114.289,354.200 119.111,354.200 119.407 C 354.200 119.821,353.882 120.575,352.321 123.862 C 351.705 125.161,351.200 126.261,351.200 126.306 C 351.200 126.352,350.525 127.822,349.700 129.574 C 347.677 133.869,347.604 133.600,350.795 133.600 C 353.867 133.600,353.436 133.965,355.163 129.900 C 355.818 128.360,357.139 125.300,358.099 123.100 C 360.309 118.036,363.988 109.566,366.004 104.900 C 366.859 102.920,368.253 99.725,369.101 97.800 C 370.838 93.859,370.974 93.435,370.577 93.178 C 370.172 92.915,365.684 92.994,365.309 93.271 C 365.007 93.494,363.226 97.770,357.858 111.160 C 357.080 113.103,357.014 113.026,354.815 107.600 C 354.334 106.412,350.917 98.204,350.320 96.800 C 350.062 96.195,349.639 95.172,349.380 94.528 C 349.061 93.736,348.756 93.297,348.441 93.178 C 347.901 92.972,343.532 92.934,343.333 93.133 M319.708 107.707 C 322.655 108.466,323.380 109.226,322.903 111.057 C 321.176 117.688,311.514 119.610,309.308 113.762 C 307.789 109.732,313.856 106.200,319.708 107.707 M387.531 107.696 C 390.979 108.509,391.588 109.555,390.257 112.376 C 387.694 117.809,379.761 119.027,377.377 114.354 C 375.199 110.086,381.142 106.189,387.531 107.696 " stroke="none" fill="#6d7470" fill-rule="evenodd"></path><path id="path1" d="M0.000 100.000 L 0.000 200.000 200.000 200.000 L 400.000 200.000 400.000 100.000 L 400.000 0.000 200.000 0.000 L 0.000 0.000 0.000 100.000 M22.092 72.121 C 22.269 72.297,22.602 72.815,22.833 73.271 C 23.064 73.727,24.128 75.585,25.198 77.400 C 28.015 82.182,33.114 91.008,34.266 93.100 C 34.812 94.090,35.549 95.355,35.905 95.910 C 38.386 99.787,38.206 101.333,34.605 107.057 C 33.643 108.587,29.779 115.241,29.297 116.200 C 29.103 116.585,28.687 117.196,28.372 117.557 C 28.058 117.918,27.800 118.298,27.800 118.402 C 27.800 118.505,27.402 119.244,26.916 120.045 C 26.429 120.845,25.264 122.805,24.327 124.400 C 23.389 125.995,22.460 127.564,22.261 127.888 C 21.737 128.741,21.652 128.749,11.752 128.909 C 3.782 129.038,2.665 129.019,2.443 128.752 C 2.177 128.431,2.848 127.194,9.141 116.400 C 10.520 114.035,12.551 110.525,13.654 108.600 C 14.757 106.675,15.804 104.859,15.980 104.565 C 17.232 102.472,18.400 100.374,18.400 100.218 C 18.400 100.053,16.529 96.722,13.446 91.400 C 12.840 90.355,11.950 88.797,11.467 87.937 C 10.984 87.078,10.232 85.786,9.795 85.067 C 9.358 84.348,9.000 83.699,9.000 83.626 C 9.000 83.553,8.786 83.177,8.523 82.791 C 8.261 82.406,7.644 81.372,7.151 80.495 C 6.659 79.618,5.663 77.890,4.938 76.657 C 2.976 73.317,2.600 72.615,2.600 72.296 C 2.600 71.993,2.878 71.985,17.036 71.846 C 21.156 71.806,21.813 71.842,22.092 72.121 M88.946 76.380 C 92.709 77.471,98.800 81.023,98.800 82.127 C 98.800 82.226,97.859 83.245,96.708 84.392 L 94.617 86.476 93.858 85.918 C 83.736 78.478,70.989 82.177,67.128 93.675 C 62.538 107.338,76.256 120.139,89.777 114.809 C 94.064 113.119,98.287 107.728,97.963 104.359 L 97.900 103.700 90.817 103.647 C 85.997 103.612,83.649 103.524,83.467 103.373 C 83.107 103.074,83.082 97.598,83.440 97.240 C 83.865 96.815,104.071 96.903,104.426 97.331 C 105.367 98.466,104.606 106.120,103.187 109.800 C 96.879 126.158,71.558 126.548,62.430 110.427 C 54.551 96.514,62.758 79.137,78.643 76.097 C 80.908 75.663,87.055 75.832,88.946 76.380 M180.300 76.356 C 184.289 77.460,190.200 80.899,190.200 82.117 C 190.200 82.396,186.293 86.400,186.022 86.400 C 185.936 86.400,185.326 85.967,184.667 85.438 C 172.300 75.513,154.140 88.118,158.358 103.700 C 162.522 119.085,185.324 120.452,189.298 105.555 C 189.855 103.467,190.346 103.600,182.087 103.600 C 176.653 103.600,174.988 103.542,174.868 103.350 C 174.615 102.943,174.540 98.161,174.777 97.550 L 174.990 97.000 185.245 97.003 C 191.364 97.005,195.621 97.083,195.800 97.196 C 196.273 97.495,196.226 104.149,195.735 106.300 C 190.842 127.750,159.186 127.681,151.991 106.205 C 147.649 93.245,155.756 79.302,169.400 76.268 C 172.124 75.662,177.960 75.709,180.300 76.356 M126.774 77.004 C 138.881 78.280,146.281 86.704,146.271 99.200 C 146.262 109.922,140.738 117.491,130.892 120.275 C 128.082 121.070,125.793 121.223,117.700 121.159 L 110.300 121.100 110.248 99.200 C 110.220 87.155,110.240 77.188,110.292 77.050 C 110.411 76.737,123.882 76.700,126.774 77.004 M236.345 80.188 C 236.722 80.206,236.911 80.667,240.586 90.500 C 242.477 95.560,244.203 100.132,244.422 100.661 C 244.814 101.607,246.683 106.623,247.007 107.600 C 247.098 107.875,247.456 108.820,247.802 109.700 C 248.148 110.580,248.819 112.335,249.293 113.600 C 249.768 114.865,250.577 117.008,251.092 118.362 C 252.292 121.518,252.341 121.442,249.148 121.372 C 246.324 121.310,246.071 121.205,245.610 119.900 C 242.552 111.245,242.457 110.995,242.055 110.550 C 241.763 110.227,241.099 110.200,233.583 110.200 C 225.068 110.200,224.800 110.226,224.800 111.048 C 224.800 111.168,224.364 112.444,223.831 113.884 C 223.298 115.323,222.481 117.551,222.015 118.835 C 221.031 121.545,221.247 121.400,218.198 121.400 C 215.486 121.400,215.048 121.217,215.426 120.243 C 215.543 119.944,216.394 117.697,217.319 115.250 C 218.243 112.803,219.776 108.753,220.726 106.250 C 221.675 103.748,222.659 101.115,222.912 100.400 C 223.166 99.685,223.925 97.660,224.599 95.900 C 225.274 94.140,225.990 92.250,226.190 91.700 C 229.498 82.633,230.458 80.328,230.975 80.207 C 231.328 80.124,234.742 80.112,236.345 80.188 M339.398 80.299 C 339.841 80.572,339.658 120.955,339.213 121.193 C 338.563 121.541,334.886 121.457,334.514 121.086 C 334.066 120.637,334.031 80.798,334.478 80.350 C 334.764 80.065,338.949 80.021,339.398 80.299 M117.080 83.748 C 116.600 84.228,116.668 114.116,117.150 114.371 C 118.088 114.865,127.985 114.300,130.006 113.636 C 136.610 111.466,139.770 106.460,139.549 98.519 C 139.312 90.026,135.152 84.966,127.442 83.798 C 125.160 83.452,117.414 83.415,117.080 83.748 M293.737 84.850 C 293.825 84.988,293.898 86.783,293.899 88.839 C 293.900 93.458,293.617 93.103,297.255 93.043 C 300.872 92.983,300.706 92.861,300.628 95.537 C 300.549 98.245,300.867 97.999,297.438 98.003 C 293.503 98.007,293.913 97.252,293.830 104.650 C 293.708 115.472,294.185 116.735,298.332 116.564 L 299.881 116.500 300.535 118.200 C 301.736 121.322,301.338 121.660,296.578 121.558 C 293.256 121.487,291.771 120.900,290.282 119.069 C 288.610 117.013,288.600 116.949,288.597 107.242 C 288.595 102.229,288.516 98.576,288.405 98.400 C 288.262 98.173,287.667 98.076,285.958 98.000 L 283.700 97.900 283.643 95.648 L 283.587 93.395 284.106 93.198 C 284.392 93.089,285.427 93.000,286.406 93.000 C 288.692 93.000,288.600 93.192,288.600 88.413 L 288.600 84.600 291.088 84.600 C 292.860 84.600,293.623 84.672,293.737 84.850 M233.266 87.850 C 233.166 87.988,232.964 88.460,232.819 88.900 C 232.674 89.340,231.789 91.815,230.853 94.400 C 229.917 96.985,228.811 100.045,228.395 101.200 C 227.979 102.355,227.536 103.563,227.411 103.884 C 226.968 105.023,226.836 105.000,233.694 105.000 C 239.567 105.000,240.000 104.976,239.998 104.650 C 239.996 104.458,239.630 103.310,239.184 102.100 C 238.264 99.607,236.770 95.463,235.491 91.856 C 234.044 87.776,233.731 87.214,233.266 87.850 M273.067 92.497 C 276.759 93.279,279.072 95.417,280.317 99.200 C 280.872 100.885,281.015 120.748,280.475 121.143 C 280.044 121.458,276.356 121.498,275.787 121.193 C 275.413 120.993,275.400 120.682,275.400 112.220 C 275.400 103.006,275.329 102.071,274.495 100.307 C 272.673 96.456,266.109 96.122,263.361 99.741 C 261.349 102.392,261.205 103.263,261.202 112.843 C 261.200 120.396,261.175 120.999,260.850 121.163 C 260.368 121.407,256.570 121.442,256.200 121.206 C 255.938 121.039,255.900 119.261,255.900 107.200 C 255.900 95.138,255.938 93.361,256.200 93.196 C 256.606 92.939,260.129 92.948,260.613 93.207 C 260.934 93.379,261.000 93.633,261.000 94.695 C 261.000 96.391,261.181 96.434,262.653 95.088 C 265.405 92.573,269.094 91.655,273.067 92.497 M319.268 92.493 C 322.654 93.097,325.729 95.286,327.106 98.074 C 328.394 100.681,328.395 100.692,328.398 111.343 C 328.400 122.559,328.708 121.400,325.727 121.400 C 323.361 121.400,323.200 121.279,323.200 119.498 C 323.200 117.827,323.038 117.784,321.767 119.118 C 317.386 123.718,307.812 122.888,304.920 117.656 C 301.371 111.236,304.367 104.884,311.690 103.299 C 314.156 102.765,319.167 102.959,321.158 103.665 C 323.069 104.342,323.285 104.253,323.121 102.856 C 322.450 97.149,314.885 95.151,310.300 99.470 C 308.929 100.762,308.986 100.744,308.024 100.163 C 304.159 97.831,304.138 97.798,305.594 96.165 C 308.489 92.916,313.736 91.507,319.268 92.493 M388.075 92.693 C 391.975 93.738,394.925 96.680,395.896 100.492 C 396.147 101.477,396.200 103.363,396.200 111.335 C 396.200 122.535,396.487 121.400,393.658 121.400 C 391.266 121.400,391.000 121.210,391.000 119.500 C 391.000 117.823,390.882 117.801,389.484 119.226 C 383.751 125.067,372.509 121.822,371.401 114.006 C 370.649 108.708,373.519 104.810,379.227 103.378 C 381.755 102.744,386.821 102.900,389.050 103.681 C 390.913 104.334,391.087 104.267,390.932 102.958 C 390.244 97.147,382.637 95.071,378.141 99.467 C 376.757 100.820,376.860 100.810,375.214 99.769 C 374.491 99.311,373.563 98.725,373.150 98.466 C 372.073 97.789,372.167 97.377,373.751 95.824 C 376.998 92.643,382.994 91.332,388.075 92.693 M348.441 93.178 C 348.756 93.297,349.061 93.736,349.380 94.528 C 349.639 95.172,350.062 96.195,350.320 96.800 C 350.917 98.204,354.334 106.412,354.815 107.600 C 357.014 113.026,357.080 113.103,357.858 111.160 C 363.226 97.770,365.007 93.494,365.309 93.271 C 365.684 92.994,370.172 92.915,370.577 93.178 C 370.974 93.435,370.838 93.859,369.101 97.800 C 368.253 99.725,366.859 102.920,366.004 104.900 C 363.988 109.566,360.309 118.036,358.099 123.100 C 357.139 125.300,355.818 128.360,355.163 129.900 C 353.436 133.965,353.867 133.600,350.795 133.600 C 347.604 133.600,347.677 133.869,349.700 129.574 C 350.525 127.822,351.200 126.352,351.200 126.306 C 351.200 126.261,351.705 125.161,352.321 123.862 C 353.882 120.575,354.200 119.821,354.200 119.407 C 354.200 119.111,352.167 114.289,350.615 110.900 C 350.413 110.460,349.686 108.795,348.999 107.200 C 348.312 105.605,347.210 103.085,346.550 101.600 C 343.244 94.162,342.986 93.481,343.333 93.133 C 343.532 92.934,347.901 92.972,348.441 93.178 M313.586 107.778 C 307.723 109.654,307.572 115.557,313.348 117.120 C 318.617 118.547,326.300 110.672,321.800 108.457 C 319.590 107.369,315.834 107.059,313.586 107.778 M381.650 107.709 C 375.564 109.348,375.375 115.788,381.372 117.198 C 385.202 118.099,390.267 114.504,390.920 110.421 C 391.275 108.202,385.784 106.596,381.650 107.709 " stroke="none" fill="#fbfbfb" fill-rule="evenodd"></path></g></svg>