<?xml version="1.0" encoding="UTF-8"?>
<svg xmlns="http://www.w3.org/2000/svg" xmlns:xlink="http://www.w3.org/1999/xlink" width="600pt" height="300pt" viewBox="0 0 600 300" version="1.1">
<g id="surface1">
<path style=" stroke:none;fill-rule:evenodd;fill:rgb(42.745098%,45.490196%,43.921569%);fill-opacity:1;" d="M 11.175781 107.925781 C 5.066406 107.996094 3.898438 108.082031 3.898438 108.445312 C 3.898438 108.921875 4.464844 109.976562 7.40625 114.984375 C 8.496094 116.835938 9.988281 119.425781 10.726562 120.742188 C 11.464844 122.058594 12.390625 123.609375 12.785156 124.1875 C 13.179688 124.765625 13.5 125.328125 13.5 125.4375 C 13.5 125.546875 14.035156 126.523438 14.691406 127.601562 C 15.347656 128.679688 16.476562 130.617188 17.199219 131.90625 C 17.925781 133.195312 19.261719 135.53125 20.167969 137.101562 C 24.792969 145.082031 27.601562 150.078125 27.601562 150.328125 C 27.601562 150.5625 25.847656 153.707031 23.96875 156.847656 C 23.707031 157.289062 22.136719 160.011719 20.480469 162.898438 C 18.828125 165.789062 15.78125 171.050781 13.710938 174.601562 C 4.273438 190.789062 3.265625 192.648438 3.664062 193.128906 C 3.996094 193.527344 5.671875 193.558594 17.628906 193.363281 C 32.476562 193.125 32.605469 193.113281 33.390625 191.832031 C 33.691406 191.347656 35.082031 188.992188 36.492188 186.601562 C 37.894531 184.207031 39.644531 181.265625 40.375 180.066406 C 41.101562 178.867188 41.699219 177.757812 41.699219 177.601562 C 41.699219 177.445312 42.085938 176.878906 42.558594 176.335938 C 43.03125 175.792969 43.65625 174.878906 43.945312 174.300781 C 44.667969 172.863281 50.464844 162.878906 51.90625 160.585938 C 57.308594 152 57.578125 149.679688 53.859375 143.863281 C 53.324219 143.03125 52.21875 141.136719 51.398438 139.648438 C 49.671875 136.511719 42.023438 123.273438 37.796875 116.101562 C 36.191406 113.378906 34.597656 110.589844 34.25 109.90625 C 32.984375 107.40625 35.660156 107.636719 11.175781 107.925781 M 117.964844 114.144531 C 87.167969 120.039062 78.667969 159.261719 104.304688 177.191406 C 121.894531 189.492188 147.679688 183.113281 154.78125 164.699219 C 156.910156 159.179688 158.050781 147.699219 156.640625 145.996094 C 156.105469 145.355469 125.796875 145.222656 125.160156 145.859375 C 124.621094 146.398438 124.660156 154.609375 125.199219 155.058594 C 125.472656 155.285156 128.996094 155.417969 136.226562 155.46875 L 146.851562 155.550781 L 146.945312 156.539062 C 147.429688 161.59375 141.097656 169.679688 134.664062 172.214844 C 114.382812 180.207031 93.808594 161.007812 100.691406 140.511719 C 106.484375 123.265625 125.605469 117.71875 140.785156 128.878906 L 141.925781 129.714844 L 145.0625 126.589844 C 148.648438 123.015625 148.546875 123.246094 147.117188 121.898438 C 140.390625 115.558594 127.917969 112.242188 117.964844 114.144531 M 254.101562 114.402344 C 233.632812 118.953125 221.472656 139.867188 227.988281 159.308594 C 238.777344 191.523438 286.261719 191.625 293.601562 159.449219 C 294.339844 156.222656 294.410156 146.242188 293.699219 145.792969 C 293.429688 145.625 287.046875 145.507812 277.867188 145.503906 L 262.484375 145.5 L 262.164062 146.324219 C 261.808594 147.242188 261.921875 154.414062 262.300781 155.023438 C 262.480469 155.3125 264.980469 155.398438 273.128906 155.398438 C 285.519531 155.398438 284.78125 155.199219 283.945312 158.332031 C 277.984375 180.679688 243.78125 178.628906 237.535156 155.550781 C 231.210938 132.175781 258.449219 113.269531 277 128.15625 C 279.253906 129.964844 278.75 130.113281 282.285156 126.589844 C 285.738281 123.136719 285.726562 123.167969 284.023438 121.601562 C 277.003906 115.132812 264.417969 112.105469 254.101562 114.402344 M 165.4375 115.574219 C 165.359375 115.78125 165.328125 130.734375 165.371094 148.800781 L 165.449219 181.648438 L 176.550781 181.738281 C 188.691406 181.835938 192.121094 181.605469 196.339844 180.414062 C 211.105469 176.238281 219.394531 164.882812 219.40625 148.800781 C 219.421875 130.054688 208.320312 117.421875 190.160156 115.507812 C 185.824219 115.050781 165.617188 115.105469 165.4375 115.574219 M 346.460938 120.308594 C 345.6875 120.492188 344.246094 123.949219 339.285156 137.550781 C 338.984375 138.375 337.910156 141.210938 336.898438 143.851562 C 335.886719 146.488281 334.75 149.527344 334.367188 150.601562 C 333.988281 151.671875 332.511719 155.621094 331.089844 159.375 C 329.664062 163.128906 327.363281 169.203125 325.976562 172.875 C 324.589844 176.546875 323.316406 179.914062 323.140625 180.363281 C 322.570312 181.824219 323.230469 182.101562 327.296875 182.101562 C 331.871094 182.101562 331.546875 182.316406 333.023438 178.253906 C 333.722656 176.328125 334.945312 172.984375 335.746094 170.824219 C 336.546875 168.664062 337.199219 166.753906 337.199219 166.570312 C 337.199219 165.339844 337.601562 165.300781 350.375 165.300781 C 361.648438 165.300781 362.644531 165.339844 363.082031 165.824219 C 363.683594 166.492188 363.828125 166.867188 368.414062 179.851562 C 369.105469 181.808594 369.484375 181.964844 373.722656 182.058594 C 378.511719 182.164062 378.4375 182.277344 376.636719 177.542969 C 375.867188 175.511719 374.652344 172.296875 373.941406 170.398438 C 373.226562 168.503906 372.222656 165.871094 371.703125 164.550781 C 371.183594 163.230469 370.648438 161.8125 370.511719 161.398438 C 370.023438 159.933594 367.222656 152.410156 366.632812 150.992188 C 366.304688 150.199219 363.714844 143.339844 360.878906 135.75 C 355.367188 121 355.082031 120.308594 354.515625 120.28125 C 352.113281 120.167969 346.992188 120.1875 346.460938 120.308594 M 501.71875 120.523438 C 501.046875 121.195312 501.097656 180.957031 501.769531 181.628906 C 502.328125 182.183594 507.84375 182.3125 508.820312 181.789062 C 509.488281 181.433594 509.761719 120.859375 509.097656 120.449219 C 508.421875 120.03125 502.144531 120.097656 501.71875 120.523438 M 191.164062 125.695312 C 202.726562 127.449219 208.96875 135.039062 209.324219 147.777344 C 209.65625 159.691406 204.914062 167.199219 195.007812 170.453125 C 191.976562 171.449219 177.132812 172.296875 175.726562 171.554688 C 175.003906 171.175781 174.898438 126.34375 175.621094 125.621094 C 176.121094 125.121094 187.738281 125.179688 191.164062 125.695312 M 432.898438 132.621094 C 432.898438 139.789062 433.039062 139.5 429.609375 139.5 C 428.140625 139.5 426.589844 139.632812 426.160156 139.796875 L 425.378906 140.09375 L 425.550781 146.851562 L 428.9375 147 C 431.5 147.113281 432.394531 147.257812 432.609375 147.601562 C 432.773438 147.863281 432.890625 153.34375 432.894531 160.863281 C 432.898438 175.421875 432.914062 175.519531 435.421875 178.601562 C 437.65625 181.351562 439.882812 182.230469 444.867188 182.335938 C 452.007812 182.488281 452.605469 181.984375 450.800781 177.300781 L 449.820312 174.75 L 447.496094 174.847656 C 441.277344 175.101562 440.5625 173.207031 440.746094 156.976562 C 440.871094 145.878906 440.253906 147.011719 446.15625 147.003906 C 451.300781 147 450.824219 147.367188 450.941406 143.304688 C 451.058594 139.292969 451.308594 139.472656 445.882812 139.566406 C 440.425781 139.65625 440.851562 140.1875 440.847656 133.257812 C 440.84375 126.355469 441.207031 126.898438 436.632812 126.898438 L 432.898438 126.898438 L 432.898438 132.621094 M 351.335938 132.757812 C 351.664062 133.507812 352.519531 135.765625 353.238281 137.785156 C 355.15625 143.195312 357.394531 149.410156 358.777344 153.148438 C 359.445312 154.964844 359.992188 156.6875 359.996094 156.976562 C 360 157.464844 359.351562 157.5 350.539062 157.5 C 340.253906 157.5 340.453125 157.535156 341.117188 155.824219 C 341.304688 155.34375 341.96875 153.53125 342.59375 151.800781 C 343.214844 150.066406 344.875 145.476562 346.28125 141.601562 C 347.683594 137.722656 349.011719 134.011719 349.226562 133.351562 C 350.011719 130.980469 350.488281 130.847656 351.335938 132.757812 M 401.417969 138.628906 C 399.230469 139.054688 395.972656 140.808594 393.980469 142.632812 C 391.773438 144.652344 391.5 144.585938 391.5 142.042969 C 391.5 140.449219 391.402344 140.070312 390.917969 139.808594 C 390.195312 139.421875 384.910156 139.410156 384.300781 139.792969 C 383.90625 140.042969 383.851562 142.707031 383.851562 160.800781 C 383.851562 178.890625 383.90625 181.558594 384.300781 181.808594 C 384.855469 182.164062 390.550781 182.109375 391.273438 181.746094 C 391.761719 181.5 391.800781 180.59375 391.804688 169.265625 C 391.808594 154.894531 392.023438 153.589844 395.042969 149.613281 C 399.164062 144.183594 409.007812 144.683594 411.742188 150.460938 C 412.992188 153.105469 413.101562 154.507812 413.101562 168.328125 C 413.101562 183.65625 412.632812 182.101562 417.222656 182.101562 C 421.699219 182.101562 421.257812 183.929688 421.128906 165.890625 C 421.007812 148.957031 421.046875 149.359375 419.085938 145.472656 C 416.398438 140.148438 408.761719 137.1875 401.417969 138.628906 M 468.449219 138.730469 C 464.46875 139.550781 460.769531 141.582031 458.390625 144.246094 C 456.207031 146.695312 456.238281 146.746094 462.035156 150.246094 C 463.480469 151.117188 463.394531 151.144531 465.449219 149.203125 C 472.328125 142.726562 483.675781 145.722656 484.679688 154.285156 C 484.925781 156.378906 484.601562 156.511719 481.738281 155.496094 C 478.75 154.4375 471.234375 154.148438 467.535156 154.949219 C 456.550781 157.324219 452.054688 166.855469 457.378906 176.484375 C 461.71875 184.332031 476.078125 185.578125 482.652344 178.675781 C 484.558594 176.675781 484.800781 176.742188 484.800781 179.246094 C 484.800781 181.917969 485.042969 182.101562 488.589844 182.101562 C 493.0625 182.101562 492.601562 183.839844 492.597656 167.015625 C 492.59375 151.039062 492.589844 151.023438 490.660156 147.109375 C 487.324219 140.359375 477.863281 136.789062 468.449219 138.730469 M 571.015625 138.578125 C 566.976562 139.226562 563.4375 140.984375 560.625 143.734375 C 558.25 146.066406 558.109375 146.683594 559.726562 147.699219 C 560.34375 148.085938 561.738281 148.964844 562.820312 149.652344 C 565.289062 151.214844 565.136719 151.230469 567.210938 149.199219 C 573.957031 142.605469 585.367188 145.71875 586.398438 154.4375 C 586.628906 156.402344 586.371094 156.5 583.574219 155.523438 C 580.230469 154.351562 572.632812 154.117188 568.839844 155.066406 C 560.277344 157.214844 555.972656 163.0625 557.101562 171.007812 C 558.761719 182.734375 575.625 187.601562 584.226562 178.839844 C 586.324219 176.703125 586.5 176.734375 586.5 179.25 C 586.5 181.816406 586.898438 182.101562 590.488281 182.101562 C 594.730469 182.101562 594.300781 183.800781 594.300781 167.003906 C 594.300781 155.042969 594.21875 152.214844 593.84375 150.738281 C 591.566406 141.792969 582.175781 136.789062 571.015625 138.578125 M 515 139.699219 C 514.480469 140.222656 514.867188 141.242188 519.824219 152.398438 C 520.816406 154.628906 522.46875 158.40625 523.5 160.800781 C 524.527344 163.191406 525.621094 165.691406 525.921875 166.351562 C 528.25 171.433594 531.300781 178.667969 531.300781 179.109375 C 531.300781 179.730469 530.824219 180.863281 528.480469 185.792969 C 527.558594 187.742188 526.800781 189.390625 526.800781 189.460938 C 526.800781 189.527344 525.789062 191.734375 524.550781 194.359375 C 521.515625 200.804688 521.40625 200.398438 526.191406 200.398438 C 530.800781 200.398438 530.152344 200.949219 532.746094 194.851562 C 533.726562 192.539062 535.707031 187.949219 537.148438 184.648438 C 540.464844 177.054688 545.980469 164.347656 549.007812 157.351562 C 550.289062 154.378906 552.378906 149.585938 553.652344 146.699219 C 556.257812 140.789062 556.460938 140.152344 555.867188 139.765625 C 555.257812 139.371094 548.527344 139.492188 547.964844 139.90625 C 547.511719 140.242188 544.839844 146.65625 536.785156 166.738281 C 535.621094 169.65625 535.519531 169.539062 532.222656 161.398438 C 531.5 159.617188 526.375 147.304688 525.480469 145.199219 C 525.09375 144.292969 524.457031 142.757812 524.070312 141.792969 C 523.589844 140.605469 523.132812 139.945312 522.660156 139.765625 C 521.851562 139.457031 515.296875 139.402344 515 139.699219 M 479.5625 161.558594 C 483.984375 162.699219 485.070312 163.839844 484.355469 166.585938 C 481.765625 176.53125 467.269531 179.414062 463.960938 170.644531 C 461.683594 164.597656 470.785156 159.300781 479.5625 161.558594 M 581.296875 161.542969 C 586.46875 162.761719 587.382812 164.332031 585.386719 168.5625 C 581.539062 176.714844 569.640625 178.539062 566.066406 171.53125 C 562.796875 165.128906 571.714844 159.285156 581.296875 161.542969 "/>
<path style=" stroke:none;fill-rule:evenodd;fill:rgb(98.431373%,98.431373%,98.431373%);fill-opacity:1;" d="M 0 150 L 0 300 L 600 300 L 600 0 L 0 0 L 0 150 M 33.136719 108.179688 C 33.402344 108.445312 33.902344 109.222656 34.25 109.90625 C 34.597656 110.589844 36.191406 113.378906 37.796875 116.101562 C 42.023438 123.273438 49.671875 136.511719 51.398438 139.648438 C 52.21875 141.136719 53.324219 143.03125 53.859375 143.863281 C 57.578125 149.679688 57.308594 152 51.90625 160.585938 C 50.464844 162.878906 44.667969 172.863281 43.945312 174.300781 C 43.65625 174.878906 43.03125 175.792969 42.558594 176.335938 C 42.085938 176.878906 41.699219 177.445312 41.699219 177.601562 C 41.699219 177.757812 41.101562 178.867188 40.375 180.066406 C 39.644531 181.265625 37.894531 184.207031 36.492188 186.601562 C 35.082031 188.992188 33.691406 191.347656 33.390625 191.832031 C 32.605469 193.113281 32.476562 193.125 17.628906 193.363281 C 5.671875 193.558594 3.996094 193.527344 3.664062 193.128906 C 3.265625 192.648438 4.273438 190.789062 13.710938 174.601562 C 15.78125 171.050781 18.828125 165.789062 20.480469 162.898438 C 22.136719 160.011719 23.707031 157.289062 23.96875 156.847656 C 25.847656 153.707031 27.601562 150.5625 27.601562 150.328125 C 27.601562 150.078125 24.792969 145.082031 20.167969 137.101562 C 19.261719 135.53125 17.925781 133.195312 17.199219 131.90625 C 16.476562 130.617188 15.347656 128.679688 14.691406 127.601562 C 14.035156 126.523438 13.5 125.546875 13.5 125.4375 C 13.5 125.328125 13.179688 124.765625 12.785156 124.1875 C 12.390625 123.609375 11.464844 122.058594 10.726562 120.742188 C 9.988281 119.425781 8.496094 116.835938 7.40625 114.984375 C 4.464844 109.976562 3.898438 108.921875 3.898438 108.445312 C 3.898438 107.988281 4.316406 107.976562 25.554688 107.769531 C 31.734375 107.710938 32.71875 107.761719 33.136719 108.179688 M 133.417969 114.570312 C 139.0625 116.207031 148.199219 121.535156 148.199219 123.191406 C 148.199219 123.339844 146.789062 124.867188 145.0625 126.589844 L 141.925781 129.714844 L 140.785156 128.878906 C 125.605469 117.71875 106.484375 123.265625 100.691406 140.511719 C 93.808594 161.007812 114.382812 180.207031 134.664062 172.214844 C 141.097656 169.679688 147.429688 161.59375 146.945312 156.539062 L 146.851562 155.550781 L 136.226562 155.46875 C 128.996094 155.417969 125.472656 155.285156 125.199219 155.058594 C 124.660156 154.609375 124.621094 146.398438 125.160156 145.859375 C 125.796875 145.222656 156.105469 145.355469 156.640625 145.996094 C 158.050781 147.699219 156.910156 159.179688 154.78125 164.699219 C 145.320312 189.238281 107.335938 189.820312 93.644531 165.640625 C 81.828125 144.769531 94.136719 118.707031 117.964844 114.144531 C 121.363281 113.496094 130.582031 113.746094 133.417969 114.570312 M 270.449219 114.535156 C 276.433594 116.191406 285.300781 121.347656 285.300781 123.175781 C 285.300781 123.59375 279.441406 129.601562 279.03125 129.601562 C 278.902344 129.601562 277.988281 128.949219 277 128.15625 C 258.449219 113.269531 231.210938 132.175781 237.535156 155.550781 C 243.78125 178.628906 277.984375 180.679688 283.945312 158.332031 C 284.78125 155.199219 285.519531 155.398438 273.128906 155.398438 C 264.980469 155.398438 262.480469 155.3125 262.300781 155.023438 C 261.921875 154.414062 261.808594 147.242188 262.164062 146.324219 L 262.484375 145.5 L 277.867188 145.503906 C 287.046875 145.507812 293.429688 145.625 293.699219 145.792969 C 294.410156 146.242188 294.339844 156.222656 293.601562 159.449219 C 286.261719 191.625 238.777344 191.523438 227.988281 159.308594 C 221.472656 139.867188 233.632812 118.953125 254.101562 114.402344 C 258.1875 113.492188 266.941406 113.5625 270.449219 114.535156 M 190.160156 115.507812 C 208.320312 117.421875 219.421875 130.054688 219.40625 148.800781 C 219.394531 164.882812 211.105469 176.238281 196.339844 180.414062 C 192.121094 181.605469 188.691406 181.835938 176.550781 181.738281 L 165.449219 181.648438 L 165.371094 148.800781 C 165.328125 130.734375 165.359375 115.78125 165.4375 115.574219 C 165.617188 115.105469 185.824219 115.050781 190.160156 115.507812 M 354.515625 120.28125 C 355.082031 120.308594 355.367188 121 360.878906 135.75 C 363.714844 143.339844 366.304688 150.199219 366.632812 150.992188 C 367.222656 152.410156 370.023438 159.933594 370.511719 161.398438 C 370.648438 161.8125 371.183594 163.230469 371.703125 164.550781 C 372.222656 165.871094 373.226562 168.503906 373.941406 170.398438 C 374.652344 172.296875 375.867188 175.511719 376.636719 177.542969 C 378.4375 182.277344 378.511719 182.164062 373.722656 182.058594 C 369.484375 181.964844 369.105469 181.808594 368.414062 179.851562 C 363.828125 166.867188 363.683594 166.492188 363.082031 165.824219 C 362.644531 165.339844 361.648438 165.300781 350.375 165.300781 C 337.601562 165.300781 337.199219 165.339844 337.199219 166.570312 C 337.199219 166.753906 336.546875 168.664062 335.746094 170.824219 C 334.945312 172.984375 333.722656 176.328125 333.023438 178.253906 C 331.546875 182.316406 331.871094 182.101562 327.296875 182.101562 C 323.230469 182.101562 322.570312 181.824219 323.140625 180.363281 C 323.316406 179.914062 324.589844 176.546875 325.976562 172.875 C 327.363281 169.203125 329.664062 163.128906 331.089844 159.375 C 332.511719 155.621094 333.988281 151.671875 334.367188 150.601562 C 334.75 149.527344 335.886719 146.488281 336.898438 143.851562 C 337.910156 141.210938 338.984375 138.375 339.285156 137.550781 C 344.246094 123.949219 345.6875 120.492188 346.460938 120.308594 C 346.992188 120.1875 352.113281 120.167969 354.515625 120.28125 M 509.097656 120.449219 C 509.761719 120.859375 509.488281 181.433594 508.820312 181.789062 C 507.84375 182.3125 502.328125 182.183594 501.769531 181.628906 C 501.097656 180.957031 501.046875 121.195312 501.71875 120.523438 C 502.144531 120.097656 508.421875 120.03125 509.097656 120.449219 M 175.621094 125.621094 C 174.898438 126.34375 175.003906 171.175781 175.726562 171.554688 C 177.132812 172.296875 191.976562 171.449219 195.007812 170.453125 C 204.914062 167.199219 209.65625 159.691406 209.324219 147.777344 C 208.96875 135.039062 202.726562 127.449219 191.164062 125.695312 C 187.738281 125.179688 176.121094 125.121094 175.621094 125.621094 M 440.605469 127.273438 C 440.738281 127.480469 440.847656 130.175781 440.847656 133.257812 C 440.851562 140.1875 440.425781 139.65625 445.882812 139.566406 C 451.308594 139.472656 451.058594 139.292969 450.941406 143.304688 C 450.824219 147.367188 451.300781 147 446.15625 147.003906 C 440.253906 147.011719 440.871094 145.878906 440.746094 156.976562 C 440.5625 173.207031 441.277344 175.101562 447.496094 174.847656 L 449.820312 174.75 L 450.800781 177.300781 C 452.605469 181.984375 452.007812 182.488281 444.867188 182.335938 C 439.882812 182.230469 437.65625 181.351562 435.421875 178.601562 C 432.914062 175.519531 432.898438 175.421875 432.894531 160.863281 C 432.890625 153.34375 432.773438 147.863281 432.609375 147.601562 C 432.394531 147.257812 431.5 147.113281 428.9375 147 L 425.550781 146.851562 L 425.378906 140.09375 L 426.160156 139.796875 C 426.589844 139.632812 428.140625 139.5 429.609375 139.5 C 433.039062 139.5 432.898438 139.789062 432.898438 132.621094 L 432.898438 126.898438 L 436.632812 126.898438 C 439.289062 126.898438 440.433594 127.007812 440.605469 127.273438 M 349.898438 131.773438 C 349.75 131.980469 349.445312 132.691406 349.226562 133.351562 C 349.011719 134.011719 347.683594 137.722656 346.28125 141.601562 C 344.875 145.476562 343.214844 150.066406 342.59375 151.800781 C 341.96875 153.53125 341.304688 155.34375 341.117188 155.824219 C 340.453125 157.535156 340.253906 157.5 350.539062 157.5 C 359.351562 157.5 360 157.464844 359.996094 156.976562 C 359.992188 156.6875 359.445312 154.964844 358.777344 153.148438 C 357.394531 149.410156 355.15625 143.195312 353.238281 137.785156 C 351.066406 131.664062 350.597656 130.820312 349.898438 131.773438 M 409.601562 138.746094 C 415.136719 139.917969 418.609375 143.125 420.476562 148.800781 C 421.308594 151.328125 421.523438 181.121094 420.710938 181.714844 C 420.066406 182.1875 414.535156 182.246094 413.679688 181.789062 C 413.121094 181.488281 413.101562 181.023438 413.101562 168.328125 C 413.101562 154.507812 412.992188 153.105469 411.742188 150.460938 C 409.007812 144.683594 399.164062 144.183594 395.042969 149.613281 C 392.023438 153.589844 391.808594 154.894531 391.804688 169.265625 C 391.800781 180.59375 391.761719 181.5 391.273438 181.746094 C 390.550781 182.109375 384.855469 182.164062 384.300781 181.808594 C 383.90625 181.558594 383.851562 178.890625 383.851562 160.800781 C 383.851562 142.707031 383.90625 140.042969 384.300781 139.792969 C 384.910156 139.410156 390.195312 139.421875 390.917969 139.808594 C 391.402344 140.070312 391.5 140.449219 391.5 142.042969 C 391.5 144.585938 391.773438 144.652344 393.980469 142.632812 C 398.109375 138.859375 403.640625 137.484375 409.601562 138.746094 M 478.902344 138.738281 C 483.980469 139.644531 488.59375 142.929688 490.660156 147.109375 C 492.589844 151.023438 492.59375 151.039062 492.597656 167.015625 C 492.601562 183.839844 493.0625 182.101562 488.589844 182.101562 C 485.042969 182.101562 484.800781 181.917969 484.800781 179.246094 C 484.800781 176.742188 484.558594 176.675781 482.652344 178.675781 C 476.078125 185.578125 461.71875 184.332031 457.378906 176.484375 C 452.054688 166.855469 456.550781 157.324219 467.535156 154.949219 C 471.234375 154.148438 478.75 154.4375 481.738281 155.496094 C 484.601562 156.511719 484.925781 156.378906 484.679688 154.285156 C 483.675781 145.722656 472.328125 142.726562 465.449219 149.203125 C 463.394531 151.144531 463.480469 151.117188 462.035156 150.246094 C 456.238281 146.746094 456.207031 146.695312 458.390625 144.246094 C 462.734375 139.375 470.605469 137.261719 478.902344 138.738281 M 582.113281 139.039062 C 587.960938 140.605469 592.386719 145.019531 593.84375 150.738281 C 594.21875 152.214844 594.300781 155.042969 594.300781 167.003906 C 594.300781 183.800781 594.730469 182.101562 590.488281 182.101562 C 586.898438 182.101562 586.5 181.816406 586.5 179.25 C 586.5 176.734375 586.324219 176.703125 584.226562 178.839844 C 575.625 187.601562 558.761719 182.734375 557.101562 171.007812 C 555.972656 163.0625 560.277344 157.214844 568.839844 155.066406 C 572.632812 154.117188 580.230469 154.351562 583.574219 155.523438 C 586.371094 156.5 586.628906 156.402344 586.398438 154.4375 C 585.367188 145.71875 573.957031 142.605469 567.210938 149.199219 C 565.136719 151.230469 565.289062 151.214844 562.820312 149.652344 C 561.738281 148.964844 560.34375 148.085938 559.726562 147.699219 C 558.109375 146.683594 558.25 146.066406 560.625 143.734375 C 565.496094 138.964844 574.492188 136.996094 582.113281 139.039062 M 522.660156 139.765625 C 523.132812 139.945312 523.589844 140.605469 524.070312 141.792969 C 524.457031 142.757812 525.09375 144.292969 525.480469 145.199219 C 526.375 147.304688 531.5 159.617188 532.222656 161.398438 C 535.519531 169.539062 535.621094 169.65625 536.785156 166.738281 C 544.839844 146.65625 547.511719 140.242188 547.964844 139.90625 C 548.527344 139.492188 555.257812 139.371094 555.867188 139.765625 C 556.460938 140.152344 556.257812 140.789062 553.652344 146.699219 C 552.378906 149.585938 550.289062 154.378906 549.007812 157.351562 C 545.980469 164.347656 540.464844 177.054688 537.148438 184.648438 C 535.707031 187.949219 533.726562 192.539062 532.746094 194.851562 C 530.152344 200.949219 530.800781 200.398438 526.191406 200.398438 C 521.40625 200.398438 521.515625 200.804688 524.550781 194.359375 C 525.789062 191.734375 526.800781 189.527344 526.800781 189.460938 C 526.800781 189.390625 527.558594 187.742188 528.480469 185.792969 C 530.824219 180.863281 531.300781 179.730469 531.300781 179.109375 C 531.300781 178.667969 528.25 171.433594 525.921875 166.351562 C 525.621094 165.691406 524.527344 163.191406 523.5 160.800781 C 522.46875 158.40625 520.816406 154.628906 519.824219 152.398438 C 514.867188 141.242188 514.480469 140.222656 515 139.699219 C 515.296875 139.402344 521.851562 139.457031 522.660156 139.765625 M 470.378906 161.667969 C 461.585938 164.480469 461.359375 173.335938 470.023438 175.679688 C 477.925781 177.820312 489.449219 166.007812 482.699219 162.683594 C 479.386719 161.054688 473.75 160.589844 470.378906 161.667969 M 572.476562 161.5625 C 563.347656 164.023438 563.0625 173.683594 572.058594 175.796875 C 577.804688 177.148438 585.402344 171.757812 586.378906 165.632812 C 586.914062 162.304688 578.675781 159.894531 572.476562 161.5625 "/>
</g>
</svg>
